<mxfile host="app.diagrams.net" modified="2024-01-12T12:22:21.348Z" agent="Mozilla/5.0 (Windows NT 10.0; Win64; x64) AppleWebKit/537.36 (KHTML, like Gecko) Chrome/118.0.0.0 YaBrowser/23.11.0.0 Safari/537.36" etag="RdMayoMCcBuW7vN8tczP" version="22.1.18" type="device">
  <diagram id="C5RBs43oDa-KdzZeNtuy" name="Page-1">
    <mxGraphModel dx="1386" dy="767" grid="1" gridSize="10" guides="1" tooltips="1" connect="1" arrows="1" fold="1" page="1" pageScale="1" pageWidth="827" pageHeight="1169" math="0" shadow="0">
      <root>
        <mxCell id="WIyWlLk6GJQsqaUBKTNV-0" />
        <mxCell id="WIyWlLk6GJQsqaUBKTNV-1" parent="WIyWlLk6GJQsqaUBKTNV-0" />
        <mxCell id="WIyWlLk6GJQsqaUBKTNV-2" value="" style="rounded=0;html=1;jettySize=auto;orthogonalLoop=1;fontSize=11;endArrow=block;endFill=0;endSize=8;strokeWidth=1;shadow=0;labelBackgroundColor=none;edgeStyle=orthogonalEdgeStyle;" parent="WIyWlLk6GJQsqaUBKTNV-1" edge="1">
          <mxGeometry relative="1" as="geometry">
            <mxPoint x="220" y="120" as="sourcePoint" />
            <mxPoint x="220" y="170" as="targetPoint" />
          </mxGeometry>
        </mxCell>
        <mxCell id="O7SVLPVElF2KOjsfHu6E-3" value="" style="edgeStyle=orthogonalEdgeStyle;rounded=0;orthogonalLoop=1;jettySize=auto;html=1;" edge="1" parent="WIyWlLk6GJQsqaUBKTNV-1" source="O7SVLPVElF2KOjsfHu6E-0" target="O7SVLPVElF2KOjsfHu6E-2">
          <mxGeometry relative="1" as="geometry" />
        </mxCell>
        <mxCell id="O7SVLPVElF2KOjsfHu6E-0" value="Запрашиваем 3 числа от пользователя" style="shape=parallelogram;perimeter=parallelogramPerimeter;whiteSpace=wrap;html=1;fixedSize=1;" vertex="1" parent="WIyWlLk6GJQsqaUBKTNV-1">
          <mxGeometry x="160" y="170" width="120" height="60" as="geometry" />
        </mxCell>
        <mxCell id="O7SVLPVElF2KOjsfHu6E-1" value="Начало алгоритма" style="ellipse;whiteSpace=wrap;html=1;" vertex="1" parent="WIyWlLk6GJQsqaUBKTNV-1">
          <mxGeometry x="160" y="80" width="120" height="40" as="geometry" />
        </mxCell>
        <mxCell id="O7SVLPVElF2KOjsfHu6E-5" value="" style="edgeStyle=orthogonalEdgeStyle;rounded=0;orthogonalLoop=1;jettySize=auto;html=1;" edge="1" parent="WIyWlLk6GJQsqaUBKTNV-1" source="O7SVLPVElF2KOjsfHu6E-2" target="O7SVLPVElF2KOjsfHu6E-4">
          <mxGeometry relative="1" as="geometry" />
        </mxCell>
        <mxCell id="O7SVLPVElF2KOjsfHu6E-2" value="Создаем переменную &quot;минимальный элемент и присваиваем ей значение первого элемента массива" style="rounded=0;whiteSpace=wrap;html=1;" vertex="1" parent="WIyWlLk6GJQsqaUBKTNV-1">
          <mxGeometry x="155" y="270" width="130" height="100" as="geometry" />
        </mxCell>
        <mxCell id="O7SVLPVElF2KOjsfHu6E-7" value="" style="edgeStyle=orthogonalEdgeStyle;rounded=0;orthogonalLoop=1;jettySize=auto;html=1;" edge="1" parent="WIyWlLk6GJQsqaUBKTNV-1" source="O7SVLPVElF2KOjsfHu6E-4" target="O7SVLPVElF2KOjsfHu6E-6">
          <mxGeometry relative="1" as="geometry" />
        </mxCell>
        <mxCell id="O7SVLPVElF2KOjsfHu6E-4" value="Проверяем элемент массива" style="rounded=0;whiteSpace=wrap;html=1;" vertex="1" parent="WIyWlLk6GJQsqaUBKTNV-1">
          <mxGeometry x="160" y="420" width="120" height="60" as="geometry" />
        </mxCell>
        <mxCell id="O7SVLPVElF2KOjsfHu6E-9" value="" style="edgeStyle=orthogonalEdgeStyle;rounded=0;orthogonalLoop=1;jettySize=auto;html=1;" edge="1" parent="WIyWlLk6GJQsqaUBKTNV-1" source="O7SVLPVElF2KOjsfHu6E-6" target="O7SVLPVElF2KOjsfHu6E-8">
          <mxGeometry relative="1" as="geometry" />
        </mxCell>
        <mxCell id="O7SVLPVElF2KOjsfHu6E-25" style="edgeStyle=orthogonalEdgeStyle;rounded=0;orthogonalLoop=1;jettySize=auto;html=1;exitX=0;exitY=0.5;exitDx=0;exitDy=0;entryX=1;entryY=0.5;entryDx=0;entryDy=0;" edge="1" parent="WIyWlLk6GJQsqaUBKTNV-1" source="O7SVLPVElF2KOjsfHu6E-6" target="O7SVLPVElF2KOjsfHu6E-13">
          <mxGeometry relative="1" as="geometry" />
        </mxCell>
        <mxCell id="O7SVLPVElF2KOjsfHu6E-6" value="Элемент меньше чем &quot;минимальный элемент&quot;?" style="rhombus;whiteSpace=wrap;html=1;" vertex="1" parent="WIyWlLk6GJQsqaUBKTNV-1">
          <mxGeometry x="150" y="520" width="140" height="80" as="geometry" />
        </mxCell>
        <mxCell id="O7SVLPVElF2KOjsfHu6E-14" value="" style="edgeStyle=orthogonalEdgeStyle;rounded=0;orthogonalLoop=1;jettySize=auto;html=1;" edge="1" parent="WIyWlLk6GJQsqaUBKTNV-1" source="O7SVLPVElF2KOjsfHu6E-8" target="O7SVLPVElF2KOjsfHu6E-13">
          <mxGeometry relative="1" as="geometry" />
        </mxCell>
        <mxCell id="O7SVLPVElF2KOjsfHu6E-8" value="&quot;Минимальный элемент&quot; = текущий элемент массива" style="whiteSpace=wrap;html=1;" vertex="1" parent="WIyWlLk6GJQsqaUBKTNV-1">
          <mxGeometry x="340" y="530" width="120" height="60" as="geometry" />
        </mxCell>
        <mxCell id="O7SVLPVElF2KOjsfHu6E-10" value="ДА&lt;br&gt;" style="text;html=1;align=center;verticalAlign=middle;resizable=0;points=[];autosize=1;strokeColor=none;fillColor=none;" vertex="1" parent="WIyWlLk6GJQsqaUBKTNV-1">
          <mxGeometry x="290" y="528" width="40" height="30" as="geometry" />
        </mxCell>
        <mxCell id="O7SVLPVElF2KOjsfHu6E-15" style="edgeStyle=orthogonalEdgeStyle;rounded=0;orthogonalLoop=1;jettySize=auto;html=1;exitX=0.5;exitY=0;exitDx=0;exitDy=0;entryX=1;entryY=0.5;entryDx=0;entryDy=0;" edge="1" parent="WIyWlLk6GJQsqaUBKTNV-1" source="O7SVLPVElF2KOjsfHu6E-13" target="O7SVLPVElF2KOjsfHu6E-4">
          <mxGeometry relative="1" as="geometry" />
        </mxCell>
        <mxCell id="O7SVLPVElF2KOjsfHu6E-18" value="" style="edgeStyle=orthogonalEdgeStyle;rounded=0;orthogonalLoop=1;jettySize=auto;html=1;" edge="1" parent="WIyWlLk6GJQsqaUBKTNV-1" source="O7SVLPVElF2KOjsfHu6E-13" target="O7SVLPVElF2KOjsfHu6E-17">
          <mxGeometry relative="1" as="geometry" />
        </mxCell>
        <mxCell id="O7SVLPVElF2KOjsfHu6E-13" value="В массиве остались непроверенные элементы?" style="rhombus;whiteSpace=wrap;html=1;" vertex="1" parent="WIyWlLk6GJQsqaUBKTNV-1">
          <mxGeometry x="520" y="520" width="130" height="80" as="geometry" />
        </mxCell>
        <mxCell id="O7SVLPVElF2KOjsfHu6E-16" value="ДА&lt;br&gt;" style="text;html=1;align=center;verticalAlign=middle;resizable=0;points=[];autosize=1;strokeColor=none;fillColor=none;" vertex="1" parent="WIyWlLk6GJQsqaUBKTNV-1">
          <mxGeometry x="580" y="490" width="40" height="30" as="geometry" />
        </mxCell>
        <mxCell id="O7SVLPVElF2KOjsfHu6E-27" style="edgeStyle=orthogonalEdgeStyle;rounded=0;orthogonalLoop=1;jettySize=auto;html=1;entryX=0.5;entryY=0;entryDx=0;entryDy=0;" edge="1" parent="WIyWlLk6GJQsqaUBKTNV-1" source="O7SVLPVElF2KOjsfHu6E-17" target="O7SVLPVElF2KOjsfHu6E-28">
          <mxGeometry relative="1" as="geometry">
            <mxPoint x="585" y="750" as="targetPoint" />
          </mxGeometry>
        </mxCell>
        <mxCell id="O7SVLPVElF2KOjsfHu6E-17" value="Возвращаем &quot;минимальный элемент&quot;" style="shape=parallelogram;perimeter=parallelogramPerimeter;whiteSpace=wrap;html=1;fixedSize=1;" vertex="1" parent="WIyWlLk6GJQsqaUBKTNV-1">
          <mxGeometry x="525" y="640" width="120" height="60" as="geometry" />
        </mxCell>
        <mxCell id="O7SVLPVElF2KOjsfHu6E-19" value="НЕТ&lt;br&gt;" style="text;html=1;align=center;verticalAlign=middle;resizable=0;points=[];autosize=1;strokeColor=none;fillColor=none;" vertex="1" parent="WIyWlLk6GJQsqaUBKTNV-1">
          <mxGeometry x="575" y="608" width="50" height="30" as="geometry" />
        </mxCell>
        <mxCell id="O7SVLPVElF2KOjsfHu6E-26" value="НЕТ&lt;br&gt;" style="text;html=1;align=center;verticalAlign=middle;resizable=0;points=[];autosize=1;strokeColor=none;fillColor=none;" vertex="1" parent="WIyWlLk6GJQsqaUBKTNV-1">
          <mxGeometry x="90" y="530" width="50" height="30" as="geometry" />
        </mxCell>
        <mxCell id="O7SVLPVElF2KOjsfHu6E-28" value="Конец алгоритма" style="ellipse;whiteSpace=wrap;html=1;" vertex="1" parent="WIyWlLk6GJQsqaUBKTNV-1">
          <mxGeometry x="525" y="750" width="120" height="60" as="geometry" />
        </mxCell>
      </root>
    </mxGraphModel>
  </diagram>
</mxfile>
